<svg width="323" height="338" viewBox="0 0 323 338" fill="none" xmlns="http://www.w3.org/2000/svg">
<mask id="mask0_2001_129" style="mask-type:luminance" maskUnits="userSpaceOnUse" x="42" y="0" width="238" height="239">
<path d="M42.4375 0.621094H279.977V238.16H42.4375V0.621094Z" fill="white"/>
</mask>
<g mask="url(#mask0_2001_129)">
<path d="M161.207 236.621C96.5625 236.621 43.9805 184.035 43.9805 119.391C43.9805 54.7461 96.5625 2.16016 161.207 2.16016C225.855 2.16016 278.438 54.7461 278.438 119.391C278.438 184.035 225.855 236.621 161.207 236.621ZM161.207 0.621094C95.7188 0.621094 42.4375 53.8984 42.4375 119.391C42.4375 184.879 95.7188 238.16 161.207 238.16C226.699 238.16 279.977 184.879 279.977 119.391C279.977 53.8984 226.699 0.621094 161.207 0.621094Z" fill="#FDFDFD"/>
</g>
<mask id="mask1_2001_129" style="mask-type:luminance" maskUnits="userSpaceOnUse" x="193" y="92" width="25" height="25">
<path d="M193.504 92.8711H217.203V116.574H193.504V92.8711Z" fill="white"/>
</mask>
<g mask="url(#mask1_2001_129)">
<mask id="mask2_2001_129" style="mask-type:luminance" maskUnits="userSpaceOnUse" x="193" y="92" width="25" height="25">
<path d="M205.355 92.8711C198.809 92.8711 193.504 98.1758 193.504 104.723C193.504 111.266 198.809 116.574 205.355 116.574C211.898 116.574 217.203 111.266 217.203 104.723C217.203 98.1758 211.898 92.8711 205.355 92.8711Z" fill="white"/>
</mask>
<g mask="url(#mask2_2001_129)">
<path d="M193.504 92.8711H217.203V116.574H193.504V92.8711Z" fill="#FDFDFD"/>
</g>
</g>
<mask id="mask3_2001_129" style="mask-type:luminance" maskUnits="userSpaceOnUse" x="50" y="120" width="222" height="39">
<path d="M50.5469 120H271.598V158.535H50.5469V120Z" fill="white"/>
</mask>
<g mask="url(#mask3_2001_129)">
<path d="M271.547 151.723C271.473 151.215 269.023 151.481 268.43 151.914C268.27 152.024 268.105 152.125 267.945 152.231C265.52 153.66 261.84 153.645 259.184 153.895C256.57 154.145 253.93 154.317 251.305 154.192C246.48 153.957 241.617 152.703 237.742 149.711C234.594 147.277 232.762 143.899 231.605 140.156C230.855 136.969 230.559 133.707 229.812 130.52C229.785 130.414 229.758 130.305 229.73 130.195C229.465 127.957 229.242 125.758 228.945 123.711C228.887 123.309 228.449 123.223 227.906 123.305C227.695 122.442 227.508 121.574 227.363 120.695C227.172 119.574 224.164 120.891 223.84 121.449C220.801 126.652 217.5 131.754 213.523 136.301C209.426 140.988 205.086 144.664 198.574 144.496C187.25 144.207 182.91 133.379 178.867 124.516C178.441 123.578 175.902 124.457 175.48 125.059C174.84 125.981 174.211 126.906 173.582 127.836C172.672 127.684 171.125 128.297 170.797 128.762C163.34 139.41 153.508 153.422 138.656 151.723C137.797 151.621 136.988 151.473 136.215 151.285C133.5 149.504 131.203 146.938 129.543 143.969C126 137.637 125.262 130.207 125.121 123.086C125.102 122.133 122.738 123.016 121.883 123.59C121.875 123.262 121.867 122.93 121.859 122.606C121.844 121.508 118.652 122.863 118.34 123.356C113.422 131.102 107.465 138.613 100.117 144.211C96.1523 146.934 91.9453 149.164 87.0234 150.09C80.4336 151.336 72.6133 151.774 66.6953 148.18C61.3047 144.902 56.7461 139.695 54.4101 133.828C54.0195 132.84 50.539 133.934 50.875 134.777C51.7617 137.004 52.9687 139.156 54.4219 141.156C53.5976 140.582 50.7617 141.559 51.0703 142.317C56.6367 155.984 74.6875 156.617 86.7304 152.875C92.4687 151.09 97.625 148.313 102.273 144.848C104.191 143.563 106.07 142.168 107.957 140.707C111.707 137.801 115.367 134.727 118.656 131.309C119.094 136.277 120.145 141.195 122.891 145.359C125.352 149.09 128.957 151.477 133.027 152.641C137.199 155.317 142.227 156.164 147.477 155.035C159.187 152.524 166.477 143.106 172.934 133.535C178.437 142.969 187.199 151.152 198.859 149.965C211.426 148.688 219.422 139.258 225.719 129.25C225.91 129.953 226.094 130.66 226.258 131.371C226.68 134.684 227.184 138.008 228.121 141.152C228.461 142.668 228.867 144.172 229.41 145.66C230.984 150.008 233.5 154.254 237.781 156.363C241.238 158.07 245.453 158.402 249.234 158.434C256.617 158.496 264.098 156.797 270.32 152.766C270.617 152.59 270.906 152.402 271.184 152.195C271.48 151.992 271.578 151.836 271.547 151.723ZM54.6562 141.481C57.4375 145.215 61.0781 148.379 65.1172 150.414C70.9414 153.34 78.5703 153.004 85.082 151.883C74.0664 154.863 59.4961 153.145 54.6562 141.481ZM117.148 129.625C117.586 129.043 118.016 128.457 118.437 127.863C118.441 127.949 118.445 128.031 118.449 128.113C118.027 128.625 117.59 129.129 117.148 129.625ZM148.594 153.328C145.957 154.063 143.406 154.035 141.031 153.43C150.641 152.832 158.098 147.641 164.344 140.957C160.156 146.317 155.371 151.449 148.594 153.328ZM197.082 148.399C186.898 147.688 179.574 138.781 175.16 130.203C175.621 129.508 176.078 128.82 176.535 128.137C178.645 132.848 180.906 137.695 184.574 141.324C188.727 145.434 194.359 146.57 200.035 146.043C211.352 144.988 218.934 134.801 224.668 125.406C224.687 125.488 224.707 125.57 224.73 125.652C218.828 135.793 210.402 149.328 197.082 148.399ZM247.152 156.563C244.199 156.219 241.277 155.567 238.871 153.723C238.734 153.617 238.605 153.504 238.473 153.395C238.785 153.539 239.105 153.68 239.426 153.813C244.82 156.02 250.801 156.113 256.527 155.641C258.207 155.504 259.988 155.406 261.766 155.215C257.102 156.766 252.02 157.133 247.152 156.563Z" fill="#FDFDFD"/>
</g>
<path d="M23.1551 279.445V306.46H20.7957L3.42072 284.539V306.46H0.576965V279.445H2.92072L20.327 301.367V279.445H23.1551Z" fill="#FDFDFD"/>
<path d="M57.5739 299.242H42.527L39.277 306.46H36.3082L48.652 279.445H51.4801L63.8239 306.46H60.8082L57.5739 299.242ZM56.527 296.929L50.0426 282.414L43.5582 296.929H56.527Z" fill="#FDFDFD"/>
<path d="M118.24 279.445L106.271 306.46H103.459L91.4901 279.445H94.5838L104.928 302.914L115.349 279.445H118.24Z" fill="#FDFDFD"/>
<path d="M143.205 306.695C140.537 306.695 138.115 306.097 135.94 304.898C133.76 303.703 132.057 302.062 130.83 299.976C129.611 297.894 129.002 295.55 129.002 292.945C129.002 290.351 129.611 288.015 130.83 285.929C132.057 283.847 133.76 282.207 135.94 281.007C138.115 279.812 140.537 279.21 143.205 279.21C145.881 279.21 148.291 279.804 150.44 280.992C152.596 282.171 154.287 283.812 155.518 285.914C156.756 288.007 157.377 290.351 157.377 292.945C157.377 295.55 156.756 297.906 155.518 300.007C154.287 302.101 152.596 303.742 150.44 304.929C148.291 306.109 145.881 306.695 143.205 306.695ZM143.205 304.148C145.338 304.148 147.268 303.671 148.986 302.71C150.713 301.742 152.068 300.406 153.049 298.695C154.026 296.976 154.518 295.062 154.518 292.945C154.518 290.843 154.026 288.937 153.049 287.226C152.068 285.507 150.713 284.171 148.986 283.21C147.268 282.242 145.338 281.757 143.205 281.757C141.068 281.757 139.131 282.242 137.393 283.21C135.662 284.171 134.303 285.507 133.315 287.226C132.322 288.937 131.83 290.843 131.83 292.945C131.83 295.062 132.322 296.976 133.315 298.695C134.303 300.406 135.662 301.742 137.393 302.71C139.131 303.671 141.068 304.148 143.205 304.148Z" fill="#FDFDFD"/>
<path d="M172.471 279.445H183.471C186.323 279.445 188.846 280.019 191.034 281.164C193.221 282.312 194.916 283.91 196.127 285.96C197.334 288.003 197.94 290.332 197.94 292.945C197.94 295.57 197.334 297.91 196.127 299.96C194.916 302.003 193.221 303.597 191.034 304.742C188.846 305.89 186.323 306.46 183.471 306.46H172.471V279.445ZM183.315 303.992C185.678 303.992 187.745 303.523 189.518 302.585C191.299 301.648 192.674 300.351 193.643 298.695C194.62 297.031 195.112 295.113 195.112 292.945C195.112 290.789 194.62 288.882 193.643 287.226C192.674 285.562 191.299 284.257 189.518 283.32C187.745 282.382 185.678 281.914 183.315 281.914H175.315V303.992H183.315Z" fill="#FDFDFD"/>
<path d="M235.61 279.445V306.46H233.251L215.876 284.539V306.46H213.032V279.445H215.376L232.782 301.367V279.445H235.61Z" fill="#FDFDFD"/>
<path d="M264.888 306.695C262.22 306.695 259.799 306.097 257.623 304.898C255.443 303.703 253.74 302.062 252.513 299.976C251.295 297.894 250.685 295.55 250.685 292.945C250.685 290.351 251.295 288.015 252.513 285.929C253.74 283.847 255.443 282.207 257.623 281.007C259.799 279.812 262.22 279.21 264.888 279.21C267.564 279.21 269.974 279.804 272.123 280.992C274.279 282.171 275.97 283.812 277.201 285.914C278.439 288.007 279.06 290.351 279.06 292.945C279.06 295.55 278.439 297.906 277.201 300.007C275.97 302.101 274.279 303.742 272.123 304.929C269.974 306.109 267.564 306.695 264.888 306.695ZM264.888 304.148C267.021 304.148 268.951 303.671 270.67 302.71C272.396 301.742 273.752 300.406 274.732 298.695C275.709 296.976 276.201 295.062 276.201 292.945C276.201 290.843 275.709 288.937 274.732 287.226C273.752 285.507 272.396 284.171 270.67 283.21C268.951 282.242 267.021 281.757 264.888 281.757C262.752 281.757 260.814 282.242 259.076 283.21C257.345 284.171 255.986 285.507 254.998 287.226C254.006 288.937 253.513 290.843 253.513 292.945C253.513 295.062 254.006 296.976 254.998 298.695C255.986 300.406 257.345 301.742 259.076 302.71C260.814 303.671 262.752 304.148 264.888 304.148Z" fill="#FDFDFD"/>
<path d="M322.201 279.445V306.46H319.467V284.851L308.857 303.023H307.498L296.889 284.96V306.46H294.154V279.445H296.498L308.232 299.476L319.857 279.445H322.201Z" fill="#FDFDFD"/>
<path d="M41.652 326.877C42.6403 326.877 43.5348 327.104 44.3395 327.549C45.152 327.999 45.7848 328.635 46.2458 329.456C46.7028 330.268 46.9333 331.202 46.9333 332.252C46.9333 333.307 46.7028 334.245 46.2458 335.065C45.7848 335.877 45.152 336.514 44.3395 336.971C43.5348 337.42 42.6403 337.643 41.652 337.643C40.7653 337.643 39.9684 337.456 39.2614 337.081C38.5622 336.706 37.9958 336.167 37.5583 335.456V337.549H36.1989V322.612H37.6208V328.971C38.0661 328.284 38.6364 327.764 39.3239 327.409C40.0114 327.057 40.7848 326.877 41.652 326.877ZM41.5426 336.377C42.2809 336.377 42.9528 336.206 43.5583 335.862C44.1598 335.518 44.6364 335.034 44.9801 334.409C45.3239 333.776 45.4958 333.057 45.4958 332.252C45.4958 331.452 45.3239 330.733 44.9801 330.096C44.6364 329.463 44.1598 328.979 43.5583 328.643C42.9528 328.299 42.2809 328.127 41.5426 328.127C40.7926 328.127 40.1208 328.299 39.527 328.643C38.9333 328.979 38.4645 329.463 38.1208 330.096C37.777 330.733 37.6051 331.452 37.6051 332.252C37.6051 333.057 37.777 333.776 38.1208 334.409C38.4645 335.034 38.9333 335.518 39.527 335.862C40.1208 336.206 40.7926 336.377 41.5426 336.377Z" fill="#FDFDFD"/>
<path d="M59.6404 326.877C61.0232 326.877 62.0818 327.229 62.8123 327.924C63.5505 328.612 63.9216 329.635 63.9216 330.987V337.549H62.5623V335.893C62.238 336.448 61.7654 336.877 61.1404 337.19C60.5154 337.495 59.7693 337.643 58.906 337.643C57.7263 337.643 56.7888 337.362 56.0935 336.799C55.3943 336.237 55.0466 335.495 55.0466 334.565C55.0466 333.67 55.3669 332.948 56.0154 332.393C56.6716 331.842 57.7107 331.565 59.1404 331.565H62.4998V330.924C62.4998 330.01 62.2419 329.315 61.7341 328.846C61.2224 328.37 60.4763 328.127 59.4998 328.127C58.8201 328.127 58.1755 328.237 57.5623 328.456C56.9451 328.674 56.4138 328.983 55.9685 329.377L55.3279 328.299C55.8669 327.854 56.5154 327.502 57.2654 327.252C58.0154 327.002 58.8044 326.877 59.6404 326.877ZM59.1404 336.518C59.9412 336.518 60.6287 336.338 61.2029 335.971C61.7849 335.596 62.2185 335.061 62.4998 334.362V332.627H59.1716C57.3591 332.627 56.4529 333.264 56.4529 334.534C56.4529 335.151 56.6873 335.635 57.156 335.987C57.6248 336.342 58.2849 336.518 59.1404 336.518Z" fill="#FDFDFD"/>
<path d="M75.2627 329.034C75.5948 328.315 76.0948 327.78 76.7627 327.424C77.4268 327.061 78.251 326.877 79.2315 326.877V328.268L78.8877 328.237C77.7705 328.237 76.8955 328.581 76.2627 329.268C75.6377 329.956 75.3252 330.92 75.3252 332.159V337.549H73.9034V326.956H75.2627V329.034Z" fill="#FDFDFD"/>
<path d="M109.814 337.768L107.861 335.752C106.662 337.034 105.087 337.674 103.142 337.674C102.224 337.674 101.408 337.526 100.689 337.221C99.9779 336.92 99.4232 336.499 99.017 335.956C98.6107 335.405 98.4076 334.78 98.4076 334.081C98.4076 333.237 98.6732 332.483 99.2045 331.815C99.7436 331.139 100.662 330.432 101.954 329.69C101.287 328.995 100.822 328.401 100.564 327.909C100.314 327.42 100.189 326.901 100.189 326.346C100.189 325.452 100.505 324.729 101.142 324.174C101.787 323.624 102.658 323.346 103.751 323.346C104.751 323.346 105.548 323.596 106.142 324.096C106.736 324.596 107.033 325.28 107.033 326.143C107.033 326.842 106.798 327.471 106.329 328.034C105.861 328.588 105.048 329.202 103.892 329.877L107.751 333.862C108.189 333.104 108.505 332.198 108.704 331.143L109.876 331.502C109.615 332.764 109.197 333.846 108.626 334.752L110.642 336.831L109.814 337.768ZM103.751 324.424C103.052 324.424 102.505 324.604 102.111 324.956C101.712 325.299 101.517 325.76 101.517 326.331C101.517 326.749 101.619 327.143 101.829 327.518C102.048 327.893 102.47 328.405 103.095 329.049C104.115 328.456 104.818 327.952 105.204 327.534C105.599 327.12 105.798 326.667 105.798 326.174C105.798 325.635 105.615 325.206 105.251 324.893C104.896 324.581 104.396 324.424 103.751 324.424ZM103.22 336.487C104.783 336.487 106.048 335.956 107.017 334.893L102.767 330.518C101.65 331.155 100.88 331.729 100.454 332.237C100.025 332.749 99.8139 333.315 99.8139 333.94C99.8139 334.713 100.126 335.331 100.751 335.799C101.376 336.26 102.197 336.487 103.22 336.487Z" fill="#FDFDFD"/>
<path d="M131.7 329.034C132.032 328.315 132.532 327.78 133.2 327.424C133.864 327.061 134.688 326.877 135.669 326.877V328.268L135.325 328.237C134.208 328.237 133.333 328.581 132.7 329.268C132.075 329.956 131.762 330.92 131.762 332.159V337.549H130.341V326.956H131.7V329.034Z" fill="#FDFDFD"/>
<path d="M153.719 332.69H144.86C144.942 333.795 145.364 334.686 146.125 335.362C146.883 336.042 147.852 336.377 149.031 336.377C149.688 336.377 150.285 336.264 150.828 336.034C151.379 335.795 151.86 335.448 152.266 334.987L153.078 335.924C152.61 336.487 152.02 336.917 151.313 337.206C150.602 337.499 149.828 337.643 148.985 337.643C147.899 337.643 146.938 337.417 146.094 336.956C145.258 336.499 144.602 335.858 144.125 335.034C143.656 334.213 143.422 333.284 143.422 332.252C143.422 331.221 143.645 330.295 144.094 329.471C144.551 328.651 145.172 328.014 145.953 327.565C146.735 327.108 147.617 326.877 148.61 326.877C149.586 326.877 150.461 327.108 151.235 327.565C152.016 328.014 152.625 328.643 153.063 329.456C153.508 330.268 153.735 331.202 153.735 332.252L153.719 332.69ZM148.61 328.096C147.586 328.096 146.727 328.424 146.031 329.081C145.344 329.729 144.953 330.577 144.86 331.627H152.375C152.281 330.577 151.883 329.729 151.188 329.081C150.5 328.424 149.641 328.096 148.61 328.096Z" fill="#FDFDFD"/>
<path d="M165.576 337.643C164.721 337.643 163.897 337.526 163.108 337.284C162.326 337.034 161.717 336.721 161.28 336.346L161.92 335.206C162.358 335.561 162.908 335.854 163.576 336.081C164.252 336.299 164.955 336.409 165.686 336.409C166.655 336.409 167.365 336.26 167.826 335.956C168.295 335.655 168.53 335.229 168.53 334.674C168.53 334.28 168.397 333.971 168.139 333.752C167.889 333.534 167.565 333.37 167.17 333.252C166.783 333.139 166.268 333.03 165.623 332.924C164.756 332.76 164.065 332.592 163.545 332.424C163.022 332.26 162.576 331.971 162.201 331.565C161.834 331.159 161.655 330.604 161.655 329.893C161.655 329.01 162.022 328.284 162.764 327.721C163.502 327.159 164.53 326.877 165.842 326.877C166.53 326.877 167.209 326.971 167.889 327.159C168.576 327.338 169.143 327.573 169.592 327.862L168.967 329.002C168.092 328.401 167.049 328.096 165.842 328.096C164.924 328.096 164.237 328.26 163.78 328.581C163.319 328.905 163.092 329.331 163.092 329.862C163.092 330.26 163.221 330.581 163.483 330.831C163.74 331.073 164.065 331.249 164.451 331.362C164.846 331.479 165.381 331.592 166.061 331.706C166.912 331.874 167.592 332.042 168.092 332.206C168.6 332.362 169.037 332.635 169.405 333.018C169.768 333.405 169.951 333.94 169.951 334.627C169.951 335.557 169.565 336.292 168.795 336.831C168.022 337.374 166.951 337.643 165.576 337.643Z" fill="#FDFDFD"/>
<path d="M184.258 336.909C183.985 337.151 183.653 337.331 183.258 337.456C182.86 337.581 182.45 337.643 182.024 337.643C181.024 337.643 180.251 337.377 179.712 336.846C179.18 336.307 178.915 335.545 178.915 334.565V328.159H177.024V326.956H178.915V324.643H180.352V326.956H183.571V328.159H180.352V334.487C180.352 335.124 180.508 335.608 180.821 335.94C181.133 336.264 181.587 336.424 182.18 336.424C182.469 336.424 182.751 336.377 183.024 336.284C183.305 336.19 183.544 336.057 183.743 335.877L184.258 336.909Z" fill="#FDFDFD"/>
<path d="M196.644 326.877C198.027 326.877 199.085 327.229 199.816 327.924C200.554 328.612 200.925 329.635 200.925 330.987V337.549H199.566V335.893C199.241 336.448 198.769 336.877 198.144 337.19C197.519 337.495 196.773 337.643 195.909 337.643C194.73 337.643 193.792 337.362 193.097 336.799C192.398 336.237 192.05 335.495 192.05 334.565C192.05 333.67 192.37 332.948 193.019 332.393C193.675 331.842 194.714 331.565 196.144 331.565H199.503V330.924C199.503 330.01 199.245 329.315 198.738 328.846C198.226 328.37 197.48 328.127 196.503 328.127C195.823 328.127 195.179 328.237 194.566 328.456C193.948 328.674 193.417 328.983 192.972 329.377L192.331 328.299C192.87 327.854 193.519 327.502 194.269 327.252C195.019 327.002 195.808 326.877 196.644 326.877ZM196.144 336.518C196.945 336.518 197.632 336.338 198.206 335.971C198.788 335.596 199.222 335.061 199.503 334.362V332.627H196.175C194.363 332.627 193.456 333.264 193.456 334.534C193.456 335.151 193.691 335.635 194.159 335.987C194.628 336.342 195.288 336.518 196.144 336.518Z" fill="#FDFDFD"/>
<path d="M220.454 326.956V337.549H219.079V335.612C218.704 336.26 218.188 336.76 217.532 337.112C216.875 337.467 216.118 337.643 215.266 337.643C213.891 337.643 212.801 337.26 212 336.487C211.196 335.717 210.797 334.588 210.797 333.096V326.956H212.235V332.956C212.235 334.073 212.504 334.92 213.047 335.502C213.598 336.077 214.383 336.362 215.407 336.362C216.52 336.362 217.399 336.026 218.047 335.346C218.692 334.67 219.016 333.729 219.016 332.518V326.956H220.454Z" fill="#FDFDFD"/>
<path d="M231.904 329.034C232.236 328.315 232.736 327.78 233.404 327.424C234.068 327.061 234.892 326.877 235.873 326.877V328.268L235.529 328.237C234.412 328.237 233.537 328.581 232.904 329.268C232.279 329.956 231.966 330.92 231.966 332.159V337.549H230.544V326.956H231.904V329.034Z" fill="#FDFDFD"/>
<path d="M248.407 326.877C249.79 326.877 250.849 327.229 251.579 327.924C252.317 328.612 252.688 329.635 252.688 330.987V337.549H251.329V335.893C251.005 336.448 250.532 336.877 249.907 337.19C249.282 337.495 248.536 337.643 247.673 337.643C246.493 337.643 245.556 337.362 244.86 336.799C244.161 336.237 243.813 335.495 243.813 334.565C243.813 333.67 244.134 332.948 244.782 332.393C245.438 331.842 246.478 331.565 247.907 331.565H251.267V330.924C251.267 330.01 251.009 329.315 250.501 328.846C249.989 328.37 249.243 328.127 248.267 328.127C247.587 328.127 246.942 328.237 246.329 328.456C245.712 328.674 245.181 328.983 244.735 329.377L244.095 328.299C244.634 327.854 245.282 327.502 246.032 327.252C246.782 327.002 247.571 326.877 248.407 326.877ZM247.907 336.518C248.708 336.518 249.396 336.338 249.97 335.971C250.552 335.596 250.985 335.061 251.267 334.362V332.627H247.938C246.126 332.627 245.22 333.264 245.22 334.534C245.22 335.151 245.454 335.635 245.923 335.987C246.392 336.342 247.052 336.518 247.907 336.518Z" fill="#FDFDFD"/>
<path d="M268.061 326.877C269.393 326.877 270.451 327.264 271.233 328.034C272.014 328.807 272.405 329.932 272.405 331.409V337.549H270.983V331.549C270.983 330.448 270.705 329.608 270.155 329.034C269.6 328.452 268.815 328.159 267.795 328.159C266.658 328.159 265.756 328.502 265.092 329.19C264.424 329.87 264.092 330.799 264.092 331.987V337.549H262.67V326.956H264.03V328.909C264.424 328.264 264.967 327.764 265.655 327.409C266.342 327.057 267.143 326.877 268.061 326.877Z" fill="#FDFDFD"/>
<path d="M287.967 336.909C287.693 337.151 287.361 337.331 286.967 337.456C286.568 337.581 286.158 337.643 285.732 337.643C284.732 337.643 283.959 337.377 283.42 336.846C282.888 336.307 282.623 335.545 282.623 334.565V328.159H280.732V326.956H282.623V324.643H284.06V326.956H287.279V328.159H284.06V334.487C284.06 335.124 284.217 335.608 284.529 335.94C284.842 336.264 285.295 336.424 285.888 336.424C286.177 336.424 286.459 336.377 286.732 336.284C287.013 336.19 287.252 336.057 287.451 335.877L287.967 336.909Z" fill="#FDFDFD"/>
<mask id="mask4_2001_129" style="mask-type:luminance" maskUnits="userSpaceOnUse" x="68" y="162" width="187" height="33">
<path d="M68.2461 162H254.828V194.496H68.2461V162Z" fill="white"/>
</mask>
<g mask="url(#mask4_2001_129)">
<path d="M254.785 188.731C254.719 188.301 252.656 188.524 252.152 188.895C252.02 188.988 251.879 189.07 251.742 189.16C249.695 190.371 246.59 190.356 244.352 190.57C242.141 190.777 239.914 190.926 237.695 190.82C233.629 190.621 229.523 189.563 226.254 187.031C223.594 184.973 222.047 182.113 221.07 178.945C220.441 176.25 220.187 173.488 219.559 170.793C219.535 170.703 219.512 170.609 219.488 170.52C219.266 168.625 219.078 166.766 218.824 165.031C218.773 164.691 218.406 164.621 217.945 164.688C217.77 163.957 217.613 163.223 217.488 162.481C217.332 161.535 214.789 162.649 214.516 163.117C211.953 167.524 209.168 171.84 205.809 175.684C202.352 179.649 198.684 182.758 193.191 182.617C183.633 182.371 179.969 173.211 176.559 165.715C176.195 164.922 174.055 165.664 173.699 166.176C173.16 166.953 172.625 167.738 172.094 168.524C171.328 168.395 170.02 168.914 169.746 169.309C163.453 178.316 155.152 190.168 142.613 188.731C141.891 188.649 141.207 188.52 140.555 188.359C138.262 186.856 136.324 184.684 134.922 182.172C131.934 176.816 131.309 170.527 131.191 164.504C131.176 163.699 129.18 164.445 128.457 164.93C128.449 164.652 128.445 164.371 128.437 164.098C128.422 163.168 125.73 164.316 125.465 164.734C121.316 171.285 116.289 177.641 110.086 182.375C106.738 184.68 103.187 186.566 99.0312 187.352C93.4687 188.402 86.8711 188.774 81.875 185.731C77.3242 182.961 73.4805 178.555 71.5078 173.594C71.1758 172.758 68.2383 173.684 68.5195 174.395C69.2695 176.281 70.293 178.102 71.5156 179.793C70.8203 179.309 68.4258 180.133 68.6875 180.774C73.3867 192.336 88.6211 192.875 98.7891 189.703C103.633 188.195 107.984 185.848 111.906 182.914C113.523 181.828 115.109 180.649 116.703 179.41C119.867 176.953 122.957 174.352 125.734 171.461C126.102 175.664 126.988 179.824 129.309 183.348C131.387 186.504 134.43 188.524 137.867 189.508C141.387 191.774 145.629 192.488 150.059 191.535C159.945 189.41 166.098 181.441 171.551 173.344C176.195 181.324 183.59 188.25 193.43 187.246C204.039 186.164 210.789 178.188 216.102 169.719C216.266 170.313 216.418 170.91 216.559 171.512C216.914 174.316 217.34 177.129 218.129 179.789C218.418 181.07 218.762 182.344 219.215 183.602C220.547 187.277 222.672 190.871 226.285 192.656C229.199 194.102 232.762 194.383 235.953 194.406C242.18 194.461 248.496 193.024 253.75 189.613C254 189.465 254.242 189.305 254.48 189.133C254.727 188.957 254.813 188.828 254.785 188.731ZM71.7148 180.066C74.0625 183.227 77.1328 185.902 80.543 187.621C85.4609 190.098 91.9023 189.816 97.3945 188.867C88.0977 191.391 75.8008 189.934 71.7148 180.066ZM124.461 170.035C124.828 169.543 125.191 169.047 125.551 168.547C125.551 168.617 125.555 168.688 125.559 168.758C125.203 169.191 124.836 169.617 124.461 170.035ZM151.004 190.09C148.777 190.711 146.625 190.688 144.621 190.176C152.73 189.668 159.027 185.277 164.297 179.621C160.762 184.156 156.723 188.5 151.004 190.09ZM191.934 185.918C183.332 185.316 177.152 177.785 173.426 170.524C173.816 169.938 174.203 169.356 174.586 168.777C176.371 172.762 178.277 176.863 181.375 179.934C184.879 183.41 189.633 184.371 194.422 183.926C203.977 183.035 210.375 174.414 215.215 166.469C215.23 166.535 215.25 166.606 215.27 166.676C210.285 175.254 203.176 186.707 191.934 185.918ZM234.195 192.824C231.703 192.535 229.234 191.981 227.203 190.422C227.086 190.332 226.98 190.238 226.867 190.145C227.133 190.27 227.402 190.387 227.672 190.5C232.227 192.363 237.273 192.445 242.109 192.047C243.527 191.93 245.027 191.848 246.527 191.684C242.594 193 238.301 193.305 234.195 192.824Z" fill="#FDFDFD"/>
</g>
<mask id="mask5_2001_129" style="mask-type:luminance" maskUnits="userSpaceOnUse" x="105" y="203" width="113" height="20">
<path d="M105.57 203.375H217.223V222.855H105.57V203.375Z" fill="white"/>
</mask>
<g mask="url(#mask5_2001_129)">
<path d="M217.195 219.449C217.156 219.195 215.922 219.328 215.621 219.547C215.539 219.602 215.457 219.652 215.375 219.703C214.152 220.418 212.293 220.41 210.953 220.535C209.633 220.66 208.297 220.75 206.973 220.684C204.535 220.567 202.078 219.942 200.121 218.445C198.531 217.227 197.605 215.539 197.023 213.668C196.645 212.07 196.492 210.442 196.117 208.848C196.102 208.793 196.09 208.738 196.074 208.688C195.941 207.567 195.828 206.465 195.68 205.442C195.648 205.242 195.43 205.199 195.152 205.238C195.047 204.809 194.953 204.375 194.879 203.934C194.785 203.375 193.262 204.031 193.098 204.313C191.566 206.914 189.898 209.465 187.891 211.738C185.82 214.082 183.625 215.922 180.34 215.836C174.621 215.692 172.426 210.277 170.387 205.848C170.168 205.375 168.887 205.817 168.676 206.117C168.352 206.578 168.031 207.039 167.715 207.504C167.254 207.43 166.473 207.738 166.309 207.969C162.543 213.293 157.578 220.301 150.074 219.449C149.641 219.399 149.23 219.324 148.844 219.231C147.469 218.34 146.313 217.059 145.473 215.574C143.684 212.406 143.309 208.692 143.238 205.129C143.23 204.652 142.035 205.098 141.602 205.383C141.598 205.219 141.594 205.051 141.59 204.891C141.582 204.34 139.973 205.02 139.812 205.266C137.328 209.137 134.32 212.895 130.609 215.692C128.605 217.055 126.48 218.172 123.996 218.633C120.668 219.258 116.719 219.477 113.73 217.676C111.004 216.039 108.703 213.434 107.523 210.504C107.324 210.008 105.566 210.555 105.738 210.977C106.184 212.09 106.797 213.168 107.527 214.168C107.113 213.879 105.68 214.367 105.836 214.746C108.648 221.582 117.766 221.899 123.848 220.027C126.746 219.133 129.352 217.746 131.699 216.012C132.668 215.371 133.617 214.672 134.57 213.942C136.461 212.488 138.313 210.953 139.973 209.242C140.195 211.727 140.723 214.184 142.113 216.27C143.355 218.133 145.176 219.328 147.234 219.91C149.34 221.246 151.879 221.672 154.531 221.11C160.445 219.852 164.129 215.141 167.387 210.356C170.168 215.074 174.594 219.164 180.48 218.57C186.832 217.934 190.867 213.219 194.051 208.211C194.145 208.563 194.238 208.918 194.32 209.274C194.535 210.93 194.789 212.594 195.262 214.164C195.434 214.922 195.641 215.676 195.914 216.418C196.707 218.594 197.98 220.715 200.141 221.77C201.887 222.625 204.016 222.789 205.926 222.805C209.656 222.836 213.434 221.988 216.578 219.973C216.727 219.883 216.871 219.789 217.012 219.688C217.16 219.586 217.211 219.508 217.195 219.449ZM107.648 214.328C109.055 216.195 110.891 217.777 112.934 218.797C115.875 220.258 119.727 220.09 123.016 219.531C117.449 221.02 110.094 220.16 107.648 214.328ZM139.211 208.399C139.434 208.11 139.648 207.817 139.863 207.52C139.863 207.563 139.867 207.602 139.867 207.645C139.656 207.902 139.434 208.152 139.211 208.399ZM155.094 220.254C153.762 220.621 152.473 220.606 151.273 220.305C156.129 220.004 159.895 217.41 163.051 214.067C160.934 216.746 158.516 219.313 155.094 220.254ZM179.586 217.789C174.441 217.434 170.742 212.981 168.512 208.688C168.746 208.344 168.977 207.996 169.207 207.656C170.273 210.012 171.414 212.438 173.266 214.25C175.367 216.305 178.211 216.875 181.074 216.61C186.793 216.082 190.621 210.988 193.516 206.289C193.527 206.332 193.539 206.371 193.551 206.414C190.566 211.485 186.312 218.254 179.586 217.789ZM204.875 221.871C203.383 221.699 201.906 221.371 200.691 220.449C200.621 220.399 200.559 220.34 200.492 220.285C200.648 220.36 200.809 220.43 200.973 220.496C203.699 221.598 206.719 221.645 209.609 221.41C210.457 221.34 211.355 221.293 212.254 221.195C209.902 221.973 207.332 222.156 204.875 221.871Z" fill="#FDFDFD"/>
</g>
</svg>
